{"title":"Katy Perry - Live Unplugged MTV [HDTV MPEG-TS 1080i Ac3 ENG] 200","uid":6775503,"size":3618522480,"categoryP":"video","categoryS":"hd___tv_shows","magnet":"?xt=urn:btih:3d5df3f39a528742180ff8c788d850deef6b778c&amp;dn=Katy+Perry+-+Live+Unplugged+MTV+%5BHDTV+MPEG-TS+1080i+Ac3+ENG%5D+200&amp;tr=udp%3A%2F%2Ftracker.openbittorrent.com%3A80&amp;tr=udp%3A%2F%2Fopen.demonii.com%3A1337&amp;tr=udp%3A%2F%2Ftracker.coppersurfer.tk%3A6969&amp;tr=udp%3A%2F%2Fexodus.desync.com%3A6969","seeders":4,"leechers":3,"uploader":"Collerom","files":1,"time":1319676539,"description":"MTV Unplugged ÃƒÂ¨ il primo album live della cantante americana Katy Perry, registrato dalla Capitol Records durante un live acustico il 22 luglio 2009, e pubblicato negli Stati Uniti il 17 novembre 2009. Il CD/DVD comprende 7 canzoni cantate unplugged durante un concerto di Katy Perry tenutosi nell'appuntamento dedicato alla cantante della serie MTV Unplugged. L'album comprende tutti i piÃƒÂ¹ grandi successi della cantante riarrangiati in chiave acustica come I Kissed a Girl, Waking Up In Vegas, e Thinking of You, una cover dei Fountains of Wayne, Hackensack ed alcuni inediti scritti dalla stessa autrice come Lost e Brick My Brick. Nel DVD sono compresi alcuni inserti speciali.\n\n\n &lt;a href=&quot;\nhttp://img231.imageshack.us/img231/4862/katyperrymtvunplugged19.jpg&quot; rel=&quot;nofollow&quot; target=&quot;_NEW&quot;&gt;\nhttp://img231.imageshack.us/img231/4862/katyperrymtvunplugged19.jpg&lt;/a&gt; &lt;a href=&quot;\nhttp://img412.imageshack.us/img412/4862/katyperrymtvunplugged19.jpg&quot; rel=&quot;nofollow&quot; target=&quot;_NEW&quot;&gt;\nhttp://img412.imageshack.us/img412/4862/katyperrymtvunplugged19.jpg&lt;/a&gt; &lt;a href=&quot;\nhttp://img3.imageshack.us/img3/4862/katyperrymtvunplugged19.jpg&quot; rel=&quot;nofollow&quot; target=&quot;_NEW&quot;&gt;\nhttp://img3.imageshack.us/img3/4862/katyperrymtvunplugged19.jpg&lt;/a&gt; &lt;a href=&quot;\nhttp://img838.imageshack.us/img838/4862/katyperrymtvunplugged19.jpg&quot; rel=&quot;nofollow&quot; target=&quot;_NEW&quot;&gt;\nhttp://img838.imageshack.us/img838/4862/katyperrymtvunplugged19.jpg&lt;/a&gt;\n\n\nTracklist\n\n01. I Kissed a Girl\n\n02. Ur So Gay\n\n03. Hackensack\n\n04. Thinking Of You\n\n05. Lost\n\n06. Waking Up In Vegas\n\n07. Brick By Brick\n\n\n\n\n\n\n\n\n\n\nGeneral\nID : 1\nComplete name : Katy Perry MTV Unplugged 1920x1080i x264 dd51.ts\nFormat : MPEG-TS\nFile size : 3.37 GiB\nDuration : 43mn 34s\nOverall bit rate : 11.1 Mbps\nVideo\nID : 2915 (0xB63)\nMenu ID : 1 (0x1)\nFormat : AVC\nFormat/Info : Advanced Video Codec\nFormat profile : &lt;a class=&quot;__cf_email__&quot; href=&quot;/cdn-cgi/l/email-protection&quot; data-cfemail=&quot;c489a5adaa8488f0eaf4&quot;&gt;[email&amp;#160;protected]&lt;/a&gt;&lt;script cf-hash='f9e31' type=&quot;text/javascript&quot;&gt;\n/* &lt;![CDATA[ */!function(){try{var t=&quot;currentScript&quot;in document?document.currentScript:function(){for(var t=document.getElementsByTagName(&quot;script&quot;),e=t.length;e--;)if(t[e].getAttribute(&quot;cf-hash&quot;))return t[e]}();if(t&amp;&amp;t.previousSibling){var e,r,n,i,c=t.previousSibling,a=c.getAttribute(&quot;data-cfemail&quot;);if(a){for(e=&quot;&quot;,r=parseInt(a.substr(0,2),16),n=2;a.length-n;n+=2)i=parseInt(a.substr(n,2),16)^r,e+=String.fromCharCode(i);e=document.createTextNode(e),c.parentNode.replaceChild(e,c)}}}catch(u){}}();/* ]]&gt; */&lt;/script&gt;\nFormat settings, CABAC : Yes\nFormat settings, ReFrames : 4 frames\nDuration : 43mn 34s\nBit rate : 9 919 Kbps\nWidth : 1 920 pixels\nHeight : 1 080 pixels\nDisplay aspect ratio : 16:9\nFrame rate : 25.000 fps\nResolution : 8 bits\nColorimetry : 4:2:0\nScan type : Interlaced\nScan order : Top Field First\nBits/(Pixel*Frame) : 0.191\nStream size : 3.02 GiB (90%)\nAudio\nID : 2914 (0xB62)\nMenu ID : 1 (0x1)\nFormat : AC-3\nFormat/Info : Audio Coding 3\nDuration : 43mn 34s\nBit rate mode : Constant\nBit rate : 384 Kbps\nChannel(s) : 2 channels\nChannel positions : L R\nSampling rate : 48.0 KHz\nStream size : 120 MiB (3%)\nLanguage : English","torrent":{"xt":"urn:btih:3d5df3f39a528742180ff8c788d850deef6b778c","amp;dn":"Katy+Perry+-+Live+Unplugged+MTV+%5BHDTV+MPEG-TS+1080i+Ac3+ENG%5D+200","amp;tr":["udp%3A%2F%2Ftracker.openbittorrent.com%3A80","udp%3A%2F%2Fopen.demonii.com%3A1337","udp%3A%2F%2Ftracker.coppersurfer.tk%3A6969","udp%3A%2F%2Fexodus.desync.com%3A6969"],"infoHash":"3d5df3f39a528742180ff8c788d850deef6b778c","infoHashBuffer":{"type":"Buffer","data":[61,93,243,243,154,82,135,66,24,15,248,199,136,216,80,222,239,107,119,140]},"announce":[],"urlList":[]}}